<svg xmlns="http://www.w3.org/2000/svg" viewBox="0 0 1440 320"><path fill="gold" d="M0 160l10.9-21.3C21.8 117 44 75 65 101.3 87.3 128 109 224 131 224c21.7 0 44-96 65-106.7C218.2 107 240 181 262 224c21.6 43 43 53 65 53.3 22.1-.3 44-10.3 66-58.6C414.5 171 436 85 458 53.3 480 21 502 43 524 80c21.5 37 43 91 65 117.3 21.9 26.7 44 26.7 66 37.4 21.4 10.3 43 32.3 65 42.6 21.8 10.7 44 10.7 65-10.6 22.3-21.7 44-63.7 66-85.4 21.7-21.3 44-21.3 65-26.6 22.2-5.7 44-15.7 66-5.4 21.6 10.7 43 42.7 65 58.7 22.1 16 44 16 66-21.3 21.5-37.7 43-111.7 65-128 22-15.7 44 26.3 66 64 21.5 37.3 43 69.3 65 90.6 21.9 21.7 44 31.7 66 32 21.4-.3 43-10.3 54-16l11-5.3V0H0z"/></svg>