<svg xmlns="http://www.w3.org/2000/svg" viewBox="0 0 1440 320"><path fill="#FFD700" fill-opacity="1" d="M0,160L10.9,138.7C21.8,117,44,75,65,101.3C87.3,128,109,224,131,224C152.7,224,175,128,196,117.3C218.2,107,240,181,262,224C283.6,267,305,277,327,277.3C349.1,277,371,267,393,218.7C414.5,171,436,85,458,53.3C480,21,502,43,524,80C545.5,117,567,171,589,197.3C610.9,224,633,224,655,234.7C676.4,245,698,267,720,277.3C741.8,288,764,288,785,266.7C807.3,245,829,203,851,181.3C872.7,160,895,160,916,154.7C938.2,149,960,139,982,149.3C1003.6,160,1025,192,1047,208C1069.1,224,1091,224,1113,186.7C1134.5,149,1156,75,1178,58.7C1200,43,1222,85,1244,122.7C1265.5,160,1287,192,1309,213.3C1330.9,235,1353,245,1375,245.3C1396.4,245,1418,235,1429,229.3L1440,224L1440,0L1429.1,0C1418.2,0,1396,0,1375,0C1352.7,0,1331,0,1309,0C1287.3,0,1265,0,1244,0C1221.8,0,1200,0,1178,0C1156.4,0,1135,0,1113,0C1090.9,0,1069,0,1047,0C1025.5,0,1004,0,982,0C960,0,938,0,916,0C894.5,0,873,0,851,0C829.1,0,807,0,785,0C763.6,0,742,0,720,0C698.2,0,676,0,655,0C632.7,0,611,0,589,0C567.3,0,545,0,524,0C501.8,0,480,0,458,0C436.4,0,415,0,393,0C370.9,0,349,0,327,0C305.5,0,284,0,262,0C240,0,218,0,196,0C174.5,0,153,0,131,0C109.1,0,87,0,65,0C43.6,0,22,0,11,0L0,0Z"></path></svg>